  0
SECTION
  2
HEADER
  9
$ACADVER
  1
AC1015
  9
$ACADMAINTVER
 70
     6
  9
$DWGCODEPAGE
  3
ANSI_936
  9
$INSBASE
 10
0.0
 20
0.0
 30
0.0
  9
$EXTMIN
 10
-59.3325701987
 20
-31.3910622533
 30
0.0
  9
$EXTMAX
 10
134.6674298013
 20
68.6089377467
 30
0.0
  9
$LIMMIN
 10
0.0
 20
0.0
  9
$LIMMAX
 10
420.0
 20
297.0
  9
$ORTHOMODE
 70
     0
  9
$REGENMODE
 70
     1
  9
$FILLMODE
 70
     1
  9
$QTEXTMODE
 70
     0
  9
$MIRRTEXT
 70
     1
  9
$LTSCALE
 40
1.0
  9
$ATTMODE
 70
     1
  9
$TEXTSIZE
 40
3.5
  9
$TRACEWID
 40
1.0
  9
$TEXTSTYLE
  7
Standard
  9
$CLAYER
  8
0
  9
$CELTYPE
  6
ByLayer
  9
$CECOLOR
 62
   256
  9
$CELTSCALE
 40
1.0
  9
$DISPSILH
 70
     0
  9
$DIMSCALE
 40
1.0
  9
$DIMASZ
 40
4.08
  9
$DIMEXO
 40
0.0
  9
$DIMDLI
 40
3.75
  9
$DIMRND
 40
0.0
  9
$DIMDLE
 40
0.0
  9
$DIMEXE
 40
2.0
  9
$DIMTP
 40
0.0
  9
$DIMTM
 40
0.0
  9
$DIMTXT
 40
3.5
  9
$DIMCEN
 40
2.5
  9
$DIMTSZ
 40
0.0
  9
$DIMTOL
 70
     0
  9
$DIMLIM
 70
     0
  9
$DIMTIH
 70
     1
  9
$DIMTOH
 70
     1
  9
$DIMSE1
 70
     0
  9
$DIMSE2
 70
     0
  9
$DIMTAD
 70
     1
  9
$DIMZIN
 70
     0
  9
$DIMBLK
  1

  9
$DIMASO
 70
     1
  9
$DIMSHO
 70
     1
  9
$DIMPOST
  1

  9
$DIMAPOST
  1

  9
$DIMALT
 70
     0
  9
$DIMALTD
 70
     3
  9
$DIMALTF
 40
0.0393700787
  9
$DIMLFAC
 40
1.0
  9
$DIMTOFL
 70
     1
  9
$DIMTVP
 40
0.0
  9
$DIMTIX
 70
     0
  9
$DIMSOXD
 70
     0
  9
$DIMSAH
 70
     0
  9
$DIMBLK1
  1

  9
$DIMBLK2
  1

  9
$DIMSTYLE
  2
ISO-25
  9
$DIMCLRD
 70
     0
  9
$DIMCLRE
 70
     0
  9
$DIMCLRT
 70
     0
  9
$DIMTFAC
 40
1.0
  9
$DIMGAP
 40
1.524
  9
$DIMJUST
 70
     0
  9
$DIMSD1
 70
     0
  9
$DIMSD2
 70
     0
  9
$DIMTOLJ
 70
     0
  9
$DIMTZIN
 70
     0
  9
$DIMALTZ
 70
     0
  9
$DIMALTTZ
 70
     0
  9
$DIMUPT
 70
     0
  9
$DIMDEC
 70
     2
  9
$DIMTDEC
 70
     2
  9
$DIMALTU
 70
     2
  9
$DIMALTTD
 70
     3
  9
$DIMTXSTY
  7
Standard
  9
$DIMAUNIT
 70
     0
  9
$DIMADEC
 70
     2
  9
$DIMALTRND
 40
0.0
  9
$DIMAZIN
 70
     0
  9
$DIMDSEP
 70
    44
  9
$DIMATFIT
 70
     3
  9
$DIMFRAC
 70
     0
  9
$DIMLDRBLK
  1

  9
$DIMLUNIT
 70
     2
  9
$DIMLWD
 70
    -2
  9
$DIMLWE
 70
    -2
  9
$DIMTMOVE
 70
     0
  9
$LUNITS
 70
     2
  9
$LUPREC
 70
     2
  9
$SKETCHINC
 40
1.0
  9
$FILLETRAD
 40
10.0
  9
$AUNITS
 70
     0
  9
$AUPREC
 70
     2
  9
$MENU
  1
.
  9
$ELEVATION
 40
0.0
  9
$PELEVATION
 40
0.0
  9
$THICKNESS
 40
0.0
  9
$LIMCHECK
 70
     0
  9
$CHAMFERA
 40
0.0
  9
$CHAMFERB
 40
0.0
  9
$CHAMFERC
 40
0.0
  9
$CHAMFERD
 40
0.0
  9
$SKPOLY
 70
     0
  9
$TDCREATE
 40
2459009.357898889
  9
$TDUCREATE
 40
2459009.024565556
  9
$TDUPDATE
 40
2459009.357937974
  9
$TDUUPDATE
 40
2459009.024604641
  9
$TDINDWG
 40
0.0000000116
  9
$TDUSRTIMER
 40
0.0000000116
  9
$USRTIMER
 70
     1
  9
$ANGBASE
 50
0.0
  9
$ANGDIR
 70
     0
  9
$PDMODE
 70
     0
  9
$PDSIZE
 40
-1.0
  9
$PLINEWID
 40
0.0
  9
$SPLFRAME
 70
     0
  9
$SPLINETYPE
 70
     6
  9
$SPLINESEGS
 70
     8
  9
$HANDSEED
  5
BF
  9
$SURFTAB1
 70
     6
  9
$SURFTAB2
 70
     6
  9
$SURFTYPE
 70
     6
  9
$SURFU
 70
     6
  9
$SURFV
 70
     6
  9
$UCSBASE
  2

  9
$UCSNAME
  2

  9
$UCSORG
 10
0.0
 20
0.0
 30
0.0
  9
$UCSXDIR
 10
1.0
 20
0.0
 30
0.0
  9
$UCSYDIR
 10
0.0
 20
1.0
 30
0.0
  9
$UCSORTHOREF
  2

  9
$UCSORTHOVIEW
 70
     0
  9
$UCSORGTOP
 10
0.0
 20
0.0
 30
0.0
  9
$UCSORGBOTTOM
 10
0.0
 20
0.0
 30
0.0
  9
$UCSORGLEFT
 10
0.0
 20
0.0
 30
0.0
  9
$UCSORGRIGHT
 10
0.0
 20
0.0
 30
0.0
  9
$UCSORGFRONT
 10
0.0
 20
0.0
 30
0.0
  9
$UCSORGBACK
 10
0.0
 20
0.0
 30
0.0
  9
$PUCSBASE
  2

  9
$PUCSNAME
  2

  9
$PUCSORG
 10
0.0
 20
0.0
 30
0.0
  9
$PUCSXDIR
 10
1.0
 20
0.0
 30
0.0
  9
$PUCSYDIR
 10
0.0
 20
1.0
 30
0.0
  9
$PUCSORTHOREF
  2

  9
$PUCSORTHOVIEW
 70
     0
  9
$PUCSORGTOP
 10
0.0
 20
0.0
 30
0.0
  9
$PUCSORGBOTTOM
 10
0.0
 20
0.0
 30
0.0
  9
$PUCSORGLEFT
 10
0.0
 20
0.0
 30
0.0
  9
$PUCSORGRIGHT
 10
0.0
 20
0.0
 30
0.0
  9
$PUCSORGFRONT
 10
0.0
 20
0.0
 30
0.0
  9
$PUCSORGBACK
 10
0.0
 20
0.0
 30
0.0
  9
$USERI1
 70
     0
  9
$USERI2
 70
     0
  9
$USERI3
 70
     0
  9
$USERI4
 70
     0
  9
$USERI5
 70
     0
  9
$USERR1
 40
0.0
  9
$USERR2
 40
0.0
  9
$USERR3
 40
0.0
  9
$USERR4
 40
0.0
  9
$USERR5
 40
0.0
  9
$WORLDVIEW
 70
     1
  9
$SHADEDGE
 70
     3
  9
$SHADEDIF
 70
    70
  9
$TILEMODE
 70
     1
  9
$MAXACTVP
 70
    64
  9
$PINSBASE
 10
0.0
 20
0.0
 30
0.0
  9
$PLIMCHECK
 70
     0
  9
$PEXTMIN
 10
1.0000000000E+20
 20
1.0000000000E+20
 30
1.0000000000E+20
  9
$PEXTMAX
 10
-1.0000000000E+20
 20
-1.0000000000E+20
 30
-1.0000000000E+20
  9
$PLIMMIN
 10
0.0
 20
0.0
  9
$PLIMMAX
 10
420.0
 20
297.0
  9
$UNITMODE
 70
     0
  9
$VISRETAIN
 70
     1
  9
$PLINEGEN
 70
     0
  9
$PSLTSCALE
 70
     1
  9
$TREEDEPTH
 70
  3020
  9
$CMLSTYLE
  2
Standard
  9
$CMLJUST
 70
     0
  9
$CMLSCALE
 40
20.0
  9
$PROXYGRAPHICS
 70
     1
  9
$MEASUREMENT
 70
     1
  9
$CELWEIGHT
370
    -1
  9
$ENDCAPS
280
     0
  9
$JOINSTYLE
280
     0
  9
$LWDISPLAY
290
     1
  9
$INSUNITS
 70
     4
  9
$HYPERLINKBASE
  1

  9
$STYLESHEET
  1

  9
$XEDIT
290
     1
  9
$CEPSNTYPE
380
     0
  9
$PSTYLEMODE
290
     1
  9
$FINGERPRINTGUID
  2
{246547bd-1246-480b-af00-058b6c72a038}
  9
$VERSIONGUID
  2
{FAEB1C32-E019-11D5-929B-00C0DF256EC4}
  9
$EXTNAMES
290
     1
  9
$PSVPSCALE
 40
0.0
  9
$OLESTARTUP
290
     0
  0
ENDSEC
  0
SECTION
  2
CLASSES
  0
CLASS
  1
ACDBDICTIONARYWDFLT
  2
AcDbDictionaryWithDefault
  3
ObjectDBX Classes
 90
        0
280
     0
281
     0
  0
CLASS
  1
VISUALSTYLE
  2
AcDbVisualStyle
  3
ObjectDBX Classes
 90
     4095
280
     0
281
     0
  0
CLASS
  1
MATERIAL
  2
AcDbMaterial
  3
ObjectDBX Classes
 90
     1153
280
     0
281
     0
  0
CLASS
  1
SCALE
  2
AcDbScale
  3
ObjectDBX Classes
 90
     1153
280
     0
281
     0
  0
CLASS
  1
TABLESTYLE
  2
AcDbTableStyle
  3
ObjectDBX Classes
 90
     4095
280
     0
281
     0
  0
CLASS
  1
MLEADERSTYLE
  2
AcDbMLeaderStyle
  3
ACDB_MLEADERSTYLE_CLASS
 90
     4095
280
     0
281
     0
  0
CLASS
  1
SUN
  2
AcDbSun
  3
SCENEOE
 90
     1153
280
     0
281
     0
  0
CLASS
  1
ACDBPLACEHOLDER
  2
AcDbPlaceHolder
  3
ObjectDBX Classes
 90
        0
280
     0
281
     0
  0
CLASS
  1
LAYOUT
  2
AcDbLayout
  3
ObjectDBX Classes
 90
        0
280
     0
281
     0
  0
ENDSEC
  0
SECTION
  2
TABLES
  0
TABLE
  2
VPORT
  5
8
330
0
100
AcDbSymbolTable
 70
     1
  0
VPORT
  5
29
330
8
100
AcDbSymbolTableRecord
100
AcDbViewportTableRecord
  2
*Active
 70
     0
 10
0.0
 20
0.0
 11
1.0
 21
1.0
 12
37.6674298013
 22
18.6089377467
 13
0.0
 23
0.0
 14
10.0
 24
10.0
 15
10.0
 25
10.0
 16
0.0
 26
0.0
 36
1.0
 17
0.0
 27
0.0
 37
0.0
 40
102.0
 41
1.94
 42
50.0
 43
0.0
 44
0.0
 50
0.0
 51
0.0
 71
     0
 72
   100
 73
     1
 74
     3
 75
     0
 76
     0
 77
     0
 78
     0
281
     0
 65
     1
110
0.0
120
0.0
130
0.0
111
1.0
121
0.0
131
0.0
112
0.0
122
1.0
132
0.0
 79
     0
146
0.0
  0
ENDTAB
  0
TABLE
  2
LTYPE
  5
5
330
0
100
AcDbSymbolTable
 70
     6
  0
LTYPE
  5
14
330
5
100
AcDbSymbolTableRecord
100
AcDbLinetypeTableRecord
  2
ByBlock
 70
     0
  3

 72
    65
 73
     0
 40
0.0
  0
LTYPE
  5
15
330
5
100
AcDbSymbolTableRecord
100
AcDbLinetypeTableRecord
  2
ByLayer
 70
     0
  3

 72
    65
 73
     0
 40
0.0
  0
LTYPE
  5
16
330
5
100
AcDbSymbolTableRecord
100
AcDbLinetypeTableRecord
  2
Continuous
 70
     0
  3
Solid line
 72
    65
 73
     0
 40
0.0
  0
LTYPE
  5
6E
330
5
100
AcDbSymbolTableRecord
100
AcDbLinetypeTableRecord
  2
HIDDEN
 70
     0
  3
Hidden __ __ __ __ __ __ __ __ __ __ __ __ __ __
 72
    65
 73
     2
 40
1.905
 49
1.27
 74
     0
 49
-0.635
 74
     0
  0
LTYPE
  5
6F
330
5
100
AcDbSymbolTableRecord
100
AcDbLinetypeTableRecord
  2
PHANTOM
 70
     0
  3
Phantom ______  __  __  ______  __  __  ______
 72
    65
 73
     6
 40
12.7
 49
6.35
 74
     0
 49
-1.27
 74
     0
 49
1.27
 74
     0
 49
-1.27
 74
     0
 49
1.27
 74
     0
 49
-1.27
 74
     0
  0
LTYPE
  5
70
330
5
100
AcDbSymbolTableRecord
100
AcDbLinetypeTableRecord
  2
CENTER
 70
     0
  3
Center ____ _ ____ _ ____ _ ____ _ ____ _ ____
 72
    65
 73
     4
 40
10.16
 49
6.35
 74
     0
 49
-1.27
 74
     0
 49
1.27
 74
     0
 49
-1.27
 74
     0
  0
LTYPE
  5
71
330
5
100
AcDbSymbolTableRecord
100
AcDbLinetypeTableRecord
  2
CENTERX2
 70
     0
  3
Center (2x) ________  __  ________  __  _____
 72
    65
 73
     4
 40
20.32
 49
12.7
 74
     0
 49
-2.54
 74
     0
 49
2.54
 74
     0
 49
-2.54
 74
     0
  0
LTYPE
  5
72
330
5
100
AcDbSymbolTableRecord
100
AcDbLinetypeTableRecord
  2
DOT2
 70
     0
  3
Dot (.5x) ........................................
 72
    65
 73
     2
 40
0.635
 49
0.0
 74
     0
 49
-0.635
 74
     0
  0
ENDTAB
  0
TABLE
  2
LAYER
  5
2
330
0
100
AcDbSymbolTable
 70
     1
  0
LAYER
  5
10
330
2
100
AcDbSymbolTableRecord
100
AcDbLayerTableRecord
  2
0
 70
     0
 62
     7
  6
Continuous
370
    -3
390
F
  0
ENDTAB
  0
TABLE
  2
STYLE
  5
3
330
0
100
AcDbSymbolTable
 70
     2
  0
STYLE
  5
11
330
3
100
AcDbSymbolTableRecord
100
AcDbTextStyleTableRecord
  2
Standard
 70
     0
 40
0.0
 41
1.0
 50
0.0
 71
     0
 42
3.5
  3
txt
  4

  0
STYLE
  5
BD
330
3
100
AcDbSymbolTableRecord
100
AcDbTextStyleTableRecord
  2
SLDTEXTSTYLE0
 70
     0
 40
0.0
 41
0.7
 50
0.0
 71
     0
 42
3.5
  3
TXT
  4
bigfont
  0
ENDTAB
  0
TABLE
  2
VIEW
  5
6
330
0
100
AcDbSymbolTable
 70
     0
  0
ENDTAB
  0
TABLE
  2
UCS
  5
7
330
0
100
AcDbSymbolTable
 70
     0
  0
ENDTAB
  0
TABLE
  2
APPID
  5
9
330
0
100
AcDbSymbolTable
 70
     1
  0
APPID
  5
12
330
9
100
AcDbSymbolTableRecord
100
AcDbRegAppTableRecord
  2
ACAD
 70
     0
  0
ENDTAB
  0
TABLE
  2
DIMSTYLE
  5
A
330
0
100
AcDbSymbolTable
 70
     1
100
AcDbDimStyleTable
  0
DIMSTYLE
105
27
330
A
100
AcDbSymbolTableRecord
100
AcDbDimStyleTableRecord
  2
ISO-25
 70
     0
 41
2.5
 42
0.625
 43
3.75
 44
1.25
 73
     0
 74
     0
 77
     1
 78
     8
140
2.5
141
2.5
143
0.0393700787
147
0.625
171
     3
172
     1
178
     0
271
     2
272
     2
274
     3
278
    44
283
     0
284
     8
340
11
  0
ENDTAB
  0
TABLE
  2
BLOCK_RECORD
  5
1
330
0
100
AcDbSymbolTable
 70
     1
  0
BLOCK_RECORD
  5
1F
330
1
100
AcDbSymbolTableRecord
100
AcDbBlockTableRecord
  2
*Model_Space
340
22
  0
BLOCK_RECORD
  5
1B
330
1
100
AcDbSymbolTableRecord
100
AcDbBlockTableRecord
  2
*Paper_Space
340
1E
  0
BLOCK_RECORD
  5
23
330
1
100
AcDbSymbolTableRecord
100
AcDbBlockTableRecord
  2
*Paper_Space0
340
26
  0
ENDTAB
  0
ENDSEC
  0
SECTION
  2
BLOCKS
  0
BLOCK
  5
20
330
1F
100
AcDbEntity
  8
0
100
AcDbBlockBegin
  2
*Model_Space
 70
     0
 10
0.0
 20
0.0
 30
0.0
  3
*Model_Space
  1

  0
ENDBLK
  5
21
330
1F
100
AcDbEntity
  8
0
100
AcDbBlockEnd
  0
BLOCK
  5
1C
330
1B
100
AcDbEntity
 67
     1
  8
0
100
AcDbBlockBegin
  2
*Paper_Space
 70
     0
 10
0.0
 20
0.0
 30
0.0
  3
*Paper_Space
  1

  0
ENDBLK
  5
1D
330
1B
100
AcDbEntity
 67
     1
  8
0
100
AcDbBlockEnd
  0
BLOCK
  5
24
330
23
100
AcDbEntity
  8
0
100
AcDbBlockBegin
  2
*Paper_Space0
 70
     0
 10
0.0
 20
0.0
 30
0.0
  3
*Paper_Space0
  1

  0
ENDBLK
  5
25
330
23
100
AcDbEntity
  8
0
100
AcDbBlockEnd
  0
ENDSEC
  0
SECTION
  2
ENTITIES
  0
CIRCLE
  5
73
330
1F
100
AcDbEntity
  8
0
  6
Continuous
 62
     7
370
    25
100
AcDbCircle
 10
50.6674298013
 20
40.2001669957
 30
0.0
 40
9.000000000000007
  0
CIRCLE
  5
74
330
1F
100
AcDbEntity
  8
0
  6
Continuous
 62
     7
370
    25
100
AcDbCircle
 10
108.1557725091
 20
16.6991649554
 30
0.0
 40
8.499999999999986
  0
CIRCLE
  5
75
330
1F
100
AcDbEntity
  8
0
  6
Continuous
 62
     7
370
    25
100
AcDbCircle
 10
24.6674298013
 20
40.2001669957
 30
0.0
 40
9.000000000000014
  0
SPLINE
  5
7A
330
1F
100
AcDbEntity
  8
0
  6
Continuous
 62
     7
370
    25
100
AcDbSpline
210
0.0
220
0.0
230
1.0
 70
     8
 71
     3
 72
    15
 73
    11
 74
     0
 42
0.000000001
 43
0.00000001
 40
0.0
 40
0.0
 40
0.0
 40
0.0
 40
0.1536915381689508
 40
0.2977668162471737
 40
0.4333602958583324
 40
0.5608297886616557
 40
0.6804939003460267
 40
0.7932741813883311
 40
0.8997045910744285
 40
1.0
 40
1.0
 40
1.0
 40
1.0
 10
-47.13481495241057
 20
-24.61284951303491
 30
0.0
 10
-47.3771853485086
 20
-24.60921659897235
 30
0.0
 10
-47.84676137109575
 20
-24.60217807709277
 30
0.0
 10
-48.5292517518216
 20
-24.56038998110537
 30
0.0
 10
-49.16719893656972
 20
-24.48412904940357
 30
0.0
 10
-49.76141202664019
 20
-24.37697414280125
 30
0.0
 10
-50.31449067695948
 20
-24.24683550944651
 30
0.0
 10
-50.82218514405636
 20
-24.0786078623188
 30
0.0
 10
-51.28906383365894
 20
-23.88614992446572
 30
0.0
 10
-51.57241842999938
 20
-23.72432545495534
 30
0.0
 10
-51.70989117192276
 20
-23.64581445205931
 30
0.0
  0
SPLINE
  5
7B
330
1F
100
AcDbEntity
  8
0
  6
Continuous
 62
     7
370
    25
100
AcDbSpline
210
0.0
220
0.0
230
1.0
 70
     8
 71
     3
 72
    23
 73
    19
 74
     0
 42
0.000000001
 43
0.00000001
 40
0.0
 40
0.0
 40
0.0
 40
0.0
 40
0.0607771830639341
 40
0.1198751489995003
 40
0.1780211038812241
 40
0.2352874803115778
 40
0.2924243307933345
 40
0.3499187674876193
 40
0.4078134719611859
 40
0.4674374407099283
 40
0.5280910090362699
 40
0.5894762626205738
 40
0.6526589970404157
 40
0.7173005946826889
 40
0.7840974036247953
 40
0.8533220203096198
 40
0.9252194316446853
 40
1.0
 40
1.0
 40
1.0
 40
1.0
 10
-38.5515451353374
 20
-19.46422146425442
 30
0.0
 10
-38.6252731008731
 20
-19.66934223651345
 30
0.0
 10
-38.77069199672295
 20
-20.07391648457589
 30
0.0
 10
-39.05735074573563
 20
-20.64509490813852
 30
0.0
 10
-39.37462085047856
 20
-21.18463248766853
 30
0.0
 10
-39.74119591961021
 20
-21.68388772405923
 30
0.0
 10
-40.14954329759138
 20
-22.14609227414167
 30
0.0
 10
-40.60055095570754
 20
-22.57026324767115
 30
0.0
 10
-41.09567087835339
 20
-22.95649631020794
 30
0.0
 10
-41.63139409418731
 20
-23.30514566390799
 30
0.0
 10
-42.20478256668636
 20
-23.61483678736515
 30
0.0
 10
-42.8127376561626
 20
-23.8827287320403
 30
0.0
 10
-43.45252396920872
 20
-24.10909229399082
 30
0.0
 10
-44.12610625460275
 20
-24.29191183040722
 30
0.0
 10
-44.83124245554315
 20
-24.43519065712035
 30
0.0
 10
-45.56963137341419
 20
-24.53709098548187
 30
0.0
 10
-46.34109506612996
 20
-24.60286909804972
 30
0.0
 10
-46.86679719136785
 20
-24.60947939654314
 30
0.0
 10
-47.13481495241057
 20
-24.61284951303491
 30
0.0
  0
SPLINE
  5
7C
330
1F
100
AcDbEntity
  8
0
  6
Continuous
 62
     7
370
    25
100
AcDbSpline
210
0.0
220
0.0
230
1.0
 70
     8
 71
     3
 72
    23
 73
    19
 74
     0
 42
0.000000001
 43
0.00000001
 40
0.0
 40
0.0
 40
0.0
 40
0.0
 40
0.089087061038939
 40
0.1717552416605571
 40
0.2481512546196086
 40
0.3187154488453665
 40
0.3835687618802072
 40
0.4435543008652925
 40
0.4993599889384466
 40
0.5509992042051687
 40
0.6013290567024078
 40
0.6520378458714977
 40
0.7040936276956477
 40
0.7581296658136987
 40
0.8142183048512501
 40
0.8727899316676185
 40
0.9348013336253622
 40
1.0
 40
1.0
 40
1.0
 40
1.0
 10
-41.29925854997155
 20
-14.15553243986418
 30
0.0
 10
-41.12128821318023
 20
-14.24667453802683
 30
0.0
 10
-40.77817061734168
 20
-14.42239178487295
 30
0.0
 10
-40.30235428566795
 20
-14.712143038664
 30
0.0
 10
-39.8721051600931
 20
-14.99602444897888
 30
0.0
 10
-39.49764002510145
 20
-15.28965285212876
 30
0.0
 10
-39.17535477499624
 20
-15.58745637357437
 30
0.0
 10
-38.90129931918046
 20
-15.88711370672286
 30
0.0
 10
-38.6834998058773
 20
-16.19439186437247
 30
0.0
 10
-38.51554430076828
 20
-16.50722114162008
 30
0.0
 10
-38.39612011721585
 20
-16.82909368703427
 30
0.0
 10
-38.30733913554734
 20
-17.16155233455586
 30
0.0
 10
-38.25819392159682
 20
-17.51072662183353
 30
0.0
 10
-38.24517175637165
 20
-17.87500678086479
 30
0.0
 10
-38.27040058369485
 20
-18.25318800110722
 30
0.0
 10
-38.32736817787433
 20
-18.64583203931398
 30
0.0
 10
-38.42124420612205
 20
-19.05253512620821
 30
0.0
 10
-38.50739201086956
 20
-19.32471948038584
 30
0.0
 10
-38.5515451353374
 20
-19.46422146425442
 30
0.0
  0
SPLINE
  5
7D
330
1F
100
AcDbEntity
  8
0
  6
Continuous
 62
     7
370
    25
100
AcDbSpline
210
0.0
220
0.0
230
1.0
 70
     8
 71
     3
 72
    19
 73
    15
 74
     0
 42
0.000000001
 43
0.00000001
 40
0.0
 40
0.0
 40
0.0
 40
0.0
 40
0.0820890700814729
 40
0.158769986787552
 40
0.2351831763049819
 40
0.3153455069051165
 40
0.3615571489225708
 40
0.4187529061412127
 40
0.4864452874721411
 40
0.5655169232963371
 40
0.6568704267319634
 40
0.7595282991309271
 40
0.8740108727126519
 40
1.0
 40
1.0
 40
1.0
 40
1.0
 10
-43.72685001338618
 20
-11.46117268376662
 30
0.0
 10
-43.75650579317712
 20
-11.56700183966577
 30
0.0
 10
-43.81386358467006
 20
-11.77168796495834
 30
0.0
 10
-43.81235034192346
 20
-12.08948411155396
 30
0.0
 10
-43.73713710310076
 20
-12.39394104518437
 30
0.0
 10
-43.60923508040491
 20
-12.63584566307344
 30
0.0
 10
-43.45363879531969
 20
-12.82577831755426
 30
0.0
 10
-43.28485577948729
 20
-12.98022106232798
 30
0.0
 10
-43.0691847925696
 20
-13.14616080431136
 30
0.0
 10
-42.80762863833345
 20
-13.32647553354038
 30
0.0
 10
-42.49812521186633
 20
-13.51865779142234
 30
0.0
 10
-42.1397563270134
 20
-13.72082175447024
 30
0.0
 10
-41.7370822665253
 20
-13.93831242428287
 30
0.0
 10
-41.44978221775838
 20
-14.08085226100274
 30
0.0
 10
-41.29925854997155
 20
-14.15553243986418
 30
0.0
  0
SPLINE
  5
7E
330
1F
100
AcDbEntity
  8
0
  6
Continuous
 62
     7
370
    25
100
AcDbSpline
210
0.0
220
0.0
230
1.0
 70
     8
 71
     3
 72
    19
 73
    15
 74
     0
 42
0.000000001
 43
0.00000001
 40
0.0
 40
0.0
 40
0.0
 40
0.0
 40
0.153611655513619
 40
0.2976603434151378
 40
0.4340302410129481
 40
0.564595260083559
 40
0.6269532795596392
 40
0.685801718929404
 40
0.7421765309198157
 40
0.7959013635719148
 40
0.8480456219275007
 40
0.8992947096856851
 40
0.9494069372402317
 40
1.0
 40
1.0
 40
1.0
 40
1.0
 10
-40.13881647680081
 20
-9.673825122791007
 30
0.0
 10
-40.35698836878089
 20
-9.679269023132761
 30
0.0
 10
-40.77975004056405
 20
-9.689817918265918
 30
0.0
 10
-41.39108520348808
 20
-9.780097675707328
 30
0.0
 10
-41.95549513037955
 20
-9.933210020598771
 30
0.0
 10
-42.38901488531246
 20
-10.11208789746446
 30
0.0
 10
-42.70403156606061
 20
-10.28173008642343
 30
0.0
 10
-42.91536419122856
 20
-10.41963517228428
 30
0.0
 10
-43.10649230899283
 20
-10.56519690371314
 30
0.0
 10
-43.27386865549225
 20
-10.72383089080197
 30
0.0
 10
-43.42353614498831
 20
-10.89003708960714
 30
0.0
 10
-43.54453174144768
 20
-11.07171960528953
 30
0.0
 10
-43.65268743893053
 20
-11.25915170581839
 30
0.0
 10
-43.70205059087017
 20
-11.39361834620473
 30
0.0
 10
-43.72685001338618
 20
-11.46117268376662
 30
0.0
  0
SPLINE
  5
7F
330
1F
100
AcDbEntity
  8
0
  6
Continuous
 62
     7
370
    25
100
AcDbSpline
210
0.0
220
0.0
230
1.0
 70
     8
 71
     3
 72
    15
 73
    11
 74
     0
 42
0.000000001
 43
0.00000001
 40
0.0
 40
0.0
 40
0.0
 40
0.0
 40
0.1149630188197291
 40
0.2303105926473857
 40
0.3467950178339753
 40
0.4665448074389512
 40
0.5908828839522468
 40
0.7201634599102299
 40
0.8562378373228149
 40
1.0
 40
1.0
 40
1.0
 40
1.0
 10
-36.51410229997154
 20
-10.95431292766906
 30
0.0
 10
-36.62512336864457
 20
-10.85140777525943
 30
0.0
 10
-36.84753687504811
 20
-10.64525324938451
 30
0.0
 10
-37.22514450098821
 20
-10.38681048958084
 30
0.0
 10
-37.63124847173799
 20
-10.16426350442558
 30
0.0
 10
-38.07107633941354
 20
-9.984271091458854
 30
0.0
 10
-38.5427067652659
 20
-9.844828391841892
 30
0.0
 10
-39.04610212217086
 20
-9.745441837930983
 30
0.0
 10
-39.58154694674726
 20
-9.684498024388786
 30
0.0
 10
-39.94968871906385
 20
-9.677447323250345
 30
0.0
 10
-40.13881647680081
 20
-9.673825122791007
 30
0.0
  0
SPLINE
  5
81
330
1F
100
AcDbEntity
  8
0
  6
Continuous
 62
     7
370
    25
100
AcDbSpline
210
0.0
220
0.0
230
1.0
 70
     8
 71
     3
 72
    15
 73
    11
 74
     0
 42
0.000000001
 43
0.00000001
 40
0.0
 40
0.0
 40
0.0
 40
0.0
 40
0.1501774541356273
 40
0.2924085282593042
 40
0.4276922255006758
 40
0.5554513696033081
 40
0.6761254143519417
 40
0.7899376621041568
 40
0.8975510989098997
 40
1.0
 40
1.0
 40
1.0
 40
1.0
 10
-39.29182714753252
 20
-6.686020244742227
 30
0.0
 10
-39.08725218361248
 20
-6.68751260728357
 30
0.0
 10
-38.68892698584656
 20
-6.690418366585828
 30
0.0
 10
-38.10719054568333
 20
-6.725314896666335
 30
0.0
 10
-37.55760450437995
 20
-6.777776137964
 30
0.0
 10
-37.03961683946054
 20
-6.849361278694712
 30
0.0
 10
-36.55564974363983
 20
-6.946724643875836
 30
0.0
 10
-36.10391953072467
 20
-7.061917441905721
 30
0.0
 10
-35.68479548078195
 20
-7.201395574058384
 30
0.0
 10
-35.42186865163474
 20
-7.31446784256513
 30
0.0
 10
-35.29363736094715
 20
-7.369613994742227
 30
0.0
  0
SPLINE
  5
82
330
1F
100
AcDbEntity
  8
0
  6
Continuous
 62
     7
370
    25
100
AcDbSpline
210
0.0
220
0.0
230
1.0
 70
     8
 71
     3
 72
    23
 73
    19
 74
     0
 42
0.000000001
 43
0.00000001
 40
0.0
 40
0.0
 40
0.0
 40
0.0
 40
0.0598407776970585
 40
0.1185677108692774
 40
0.1765118560818281
 40
0.234329631165902
 40
0.2923044497285411
 40
0.3511799626937891
 40
0.4112300352545103
 40
0.4732974590040754
 40
0.5361811665536663
 40
0.5993847392252044
 40
0.6632144812227497
 40
0.7278791097886874
 40
0.7933935727428406
 40
0.860421802468956
 40
0.9292159573516621
 40
1.0
 40
1.0
 40
1.0
 40
1.0
 10
-47.6650169341179
 20
-11.74127939108369
 30
0.0
 10
-47.59317935069736
 20
-11.54518676934478
 30
0.0
 10
-47.45084133056547
 20
-11.15665149001332
 30
0.0
 10
-47.1732488968732
 20
-10.60583762416114
 30
0.0
 10
-46.85638840489649
 20
-10.08565165056705
 30
0.0
 10
-46.49225429891973
 20
-9.599908956238965
 30
0.0
 10
-46.07766827583762
 20
-9.152613217532389
 30
0.0
 10
-45.62460324893178
 20
-8.732666258406145
 30
0.0
 10
-45.1194110938243
 20
-8.352781257155776
 30
0.0
 10
-44.57591828674364
 20
-8.00401867530607
 30
0.0
 10
-43.99583899928955
 20
-7.695905727947882
 30
0.0
 10
-43.39090711643343
 20
-7.425145528699467
 30
0.0
 10
-42.76294957716919
 20
-7.194111894921095
 30
0.0
 10
-42.11191171595005
 20
-7.007809293177798
 30
0.0
 10
-41.4387109680463
 20
-6.86460794828498
 30
0.0
 10
-40.74375385647757
 20
-6.762245721777853
 30
0.0
 10
-40.02560853211401
 20
-6.69619042188057
 30
0.0
 10
-39.53873463804261
 20
-6.689442371506462
 30
0.0
 10
-39.29182714753252
 20
-6.686020244742227
 30
0.0
  0
SPLINE
  5
83
330
1F
100
AcDbEntity
  8
0
  6
Continuous
 62
     7
370
    25
100
AcDbSpline
210
0.0
220
0.0
230
1.0
 70
     8
 71
     3
 72
    23
 73
    19
 74
     0
 42
0.000000001
 43
0.00000001
 40
0.0
 40
0.0
 40
0.0
 40
0.0
 40
0.0770000397596574
 40
0.1498804064160385
 40
0.2186649034427716
 40
0.2844440549103157
 40
0.3464601835818676
 40
0.4063512781292098
 40
0.4643153078937411
 40
0.5209987290842728
 40
0.5767989618570745
 40
0.6319733482199367
 40
0.6885765783352035
 40
0.7460837916370856
 40
0.8051297630665752
 40
0.8673063477079218
 40
0.9316600231139162
 40
0.9999999999999999
 40
0.9999999999999999
 40
0.9999999999999999
 40
0.9999999999999999
 10
-45.27410611094715
 20
-16.71650804962028
 30
0.0
 10
-45.41521529375109
 20
-16.64507482855167
 30
0.0
 10
-45.68988400475049
 20
-16.50603022235683
 30
0.0
 10
-46.07309738846909
 20
-16.27120096034321
 30
0.0
 10
-46.42264885784661
 20
-16.02739558299597
 30
0.0
 10
-46.73617810457477
 20
-15.77238719201504
 30
0.0
 10
-47.01233690570469
 20
-15.50289349393254
 30
0.0
 10
-47.25402552293362
 20
-15.22296107560992
 30
0.0
 10
-47.45936570275916
 20
-14.92824209224251
 30
0.0
 10
-47.62537167496777
 20
-14.61955982637132
 30
0.0
 10
-47.76186779420954
 20
-14.30270786100836
 30
0.0
 10
-47.85454237071926
 20
-13.97045047083703
 30
0.0
 10
-47.91501792586602
 20
-13.62763430612556
 30
0.0
 10
-47.9383199089997
 20
-13.27204486276567
 30
0.0
 10
-47.92251386290791
 20
-12.90496135930618
 30
0.0
 10
-47.87807345987338
 20
-12.52597215058223
 30
0.0
 10
-47.78782984957058
 20
-12.13541492284937
 30
0.0
 10
-47.70676632618559
 20
-11.87526300984919
 30
0.0
 10
-47.66501693411789
 20
-11.74127939108369
 30
0.0
  0
SPLINE
  5
84
330
1F
100
AcDbEntity
  8
0
  6
Continuous
 62
     7
370
    25
100
AcDbSpline
210
0.0
220
0.0
230
1.0
 70
     8
 71
     3
 72
    19
 73
    15
 74
     0
 42
0.000000001
 43
0.00000001
 40
0.0
 40
0.0
 40
0.0
 40
0.0
 40
0.0789150011489985
 40
0.1529188850898894
 40
0.2275547830282722
 40
0.3058688824597953
 40
0.3513006910400935
 40
0.4077737912585219
 40
0.47608574297612
 40
0.5561588630283604
 40
0.6482693554126937
 40
0.7525978630442061
 40
0.8699175415504424
 40
1.0
 40
1.0
 40
1.0
 40
1.0
 10
-42.49304665972764
 20
-19.76100118986418
 30
0.0
 10
-42.46114050676182
 20
-19.64526341995174
 30
0.0
 10
-42.39931381642409
 20
-19.42099058867618
 30
0.0
 10
-42.39496970074141
 20
-19.07093946879784
 30
0.0
 10
-42.48118427948796
 20
-18.73512476498873
 30
0.0
 10
-42.61060648264253
 20
-18.45999684279242
 30
0.0
 10
-42.78046805770744
 20
-18.24435307340831
 30
0.0
 10
-42.96688734662188
 20
-18.06475322606464
 30
0.0
 10
-43.21236610813563
 20
-17.87358105993846
 30
0.0
 10
-43.51362370900265
 20
-17.66748607437549
 30
0.0
 10
-43.87152147374552
 20
-17.44839900047358
 30
0.0
 10
-44.28628941642015
 20
-17.21465680127634
 30
0.0
 10
-44.76038208350764
 20
-16.96958395012274
 30
0.0
 10
-45.09707508698661
 20
-16.80371885427932
 30
0.0
 10
-45.27410611094715
 20
-16.71650804962028
 30
0.0
  0
SPLINE
  5
85
330
1F
100
AcDbEntity
  8
0
  6
Continuous
 62
     7
370
    25
100
AcDbSpline
210
0.0
220
0.0
230
1.0
 70
     8
 71
     3
 72
    15
 73
    11
 74
     0
 42
0.000000001
 43
0.00000001
 40
0.0
 40
0.0
 40
0.0
 40
0.0
 40
0.1654321640312468
 40
0.3149462476518382
 40
0.4520822665683233
 40
0.5784273474869027
 40
0.6952240822580436
 40
0.8020756104576366
 40
0.9024418068415296
 40
1.0
 40
1.0
 40
1.0
 40
1.0
 10
-46.20112592802032
 20
-21.62504463498613
 30
0.0
 10
-45.95735458279093
 20
-21.61904122922217
 30
0.0
 10
-45.49326786232385
 20
-21.60761207256719
 30
0.0
 10
-44.83249432521647
 20
-21.51142140292933
 30
0.0
 10
-44.24401400582489
 20
-21.35050432396281
 30
0.0
 10
-43.7291747484747
 20
-21.12401492357908
 30
0.0
 10
-43.29407969835797
 20
-20.84369338805962
 30
0.0
 10
-42.93537443511359
 20
-20.52580861582187
 30
0.0
 10
-42.6626245812069
 20
-20.16322132160474
 30
0.0
 10
-42.54903546105686
 20
-19.89380045317744
 30
0.0
 10
-42.49304665972764
 20
-19.76100118986418
 30
0.0
  0
SPLINE
  5
86
330
1F
100
AcDbEntity
  8
0
  6
Continuous
 62
     7
370
    25
100
AcDbSpline
210
0.0
220
0.0
230
1.0
 70
     8
 71
     3
 72
    15
 73
    11
 74
     0
 42
0.000000001
 43
0.00000001
 40
0.0
 40
0.0
 40
0.0
 40
0.0
 40
0.1205184944042525
 40
0.2393633152576104
 40
0.3575074786476196
 40
0.4777330460832774
 40
0.600290587959275
 40
0.7279335260652742
 40
0.8605649543158844
 40
1.0
 40
1.0
 40
1.0
 40
1.0
 10
-50.44274178167886
 20
-19.9177275618154
 30
0.0
 10
-50.31138702324528
 20
-20.05450609351099
 30
0.0
 10
-50.05050166611449
 20
-20.32616367573159
 30
0.0
 10
-49.60533392503935
 20
-20.67190975139905
 30
0.0
 10
-49.12831819445951
 20
-20.96997070431862
 30
0.0
 10
-48.61229399186237
 20
-21.20881343477712
 30
0.0
 10
-48.06039172535344
 20
-21.39760291065389
 30
0.0
 10
-47.47215567293339
 20
-21.52857563596321
 30
0.0
 10
-46.84814339045973
 20
-21.61084498065488
 30
0.0
 10
-46.42036426647705
 20
-21.62023315955777
 30
0.0
 10
-46.20112592802032
 20
-21.62504463498613
 30
0.0
  0
SPLINE
  5
8A
330
1F
100
AcDbEntity
  8
0
  6
Continuous
 62
     7
370
    25
100
AcDbSpline
210
0.0
220
0.0
230
1.0
 70
     8
 71
     3
 72
    23
 73
    19
 74
     0
 42
0.000000001
 43
0.00000001
 40
0.0
 40
0.0
 40
0.0
 40
0.0
 40
0.0536383154779906
 40
0.1066700015297368
 40
0.1586420623253953
 40
0.2105126150929124
 40
0.2630255260704134
 40
0.316483397139695
 40
0.3716794208666481
 40
0.4291188572164816
 40
0.4880875967622436
 40
0.5508775166949631
 40
0.6163139831543798
 40
0.6852648365466987
 40
0.7578726424502839
 40
0.8348570430711565
 40
0.9154445130247613
 40
1.0
 40
1.0
 40
1.0
 40
1.0
 10
-28.67111449509349
 20
-21.41163000083979
 30
0.0
 10
-28.56093395083825
 20
-21.40811364329168
 30
0.0
 10
-28.34181896336113
 20
-21.40112069689333
 30
0.0
 10
-28.01839221828056
 20
-21.35470079262167
 30
0.0
 10
-27.70618513002492
 20
-21.27296294640116
 30
0.0
 10
-27.40361183681496
 20
-21.16343583166981
 30
0.0
 10
-27.11313439783662
 20
-21.01805075821591
 30
0.0
 10
-26.83087955672778
 20
-20.84415406617666
 30
0.0
 10
-26.55994504238383
 20
-20.63578699962278
 30
0.0
 10
-26.30143359950525
 20
-20.39554742373498
 30
0.0
 10
-26.05135499683198
 20
-20.12499749751814
 30
0.0
 10
-25.81261321420729
 20
-19.82297820312971
 30
0.0
 10
-25.58704772209955
 20
-19.48632400396383
 30
0.0
 10
-25.36459008649902
 20
-19.12364264749765
 30
0.0
 10
-25.16011873691115
 20
-18.72365563339746
 30
0.0
 10
-24.95934163202801
 20
-18.29546568067385
 30
0.0
 10
-24.77315511241858
 20
-17.83395528114077
 30
0.0
 10
-24.66055225710311
 20
-17.51393670117633
 30
0.0
 10
-24.60289803167886
 20
-17.35008274474223
 30
0.0
  0
SPLINE
  5
8B
330
1F
100
AcDbEntity
  8
0
  6
Continuous
 62
     7
370
    25
100
AcDbSpline
210
0.0
220
0.0
230
1.0
 70
     8
 71
     3
 72
    15
 73
    11
 74
     0
 42
0.000000001
 43
0.00000001
 40
0.0
 40
0.0
 40
0.0
 40
0.0
 40
0.1153539503644965
 40
0.2318648565807954
 40
0.349367187066764
 40
0.4703654129953479
 40
0.5944403560149119
 40
0.7240315598025225
 40
0.858455944910727
 40
1.0
 40
1.0
 40
1.0
 40
1.0
 10
-30.67187669021544
 20
-20.77138609840076
 30
0.0
 10
-30.60737150511591
 20
-20.82291872269199
 30
0.0
 10
-30.47771417266599
 20
-20.92650082371897
 30
0.0
 10
-30.26271105772468
 20
-21.0549329085071
 30
0.0
 10
-30.03443788157996
 20
-21.16661705407252
 30
0.0
 10
-29.79053862191687
 20
-21.25573740879798
 30
0.0
 10
-29.53181577682851
 20
-21.32642956608274
 30
0.0
 10
-29.25839771214664
 20
-21.37539917608014
 30
0.0
 10
-28.96971743724125
 20
-21.40633273568518
 30
0.0
 10
-28.7723461271292
 20
-21.40983413508887
 30
0.0
 10
-28.67111449509349
 20
-21.41163000083979
 30
0.0
  0
SPLINE
  5
8D
330
1F
100
AcDbEntity
  8
0
  6
Continuous
 62
     7
370
    25
100
AcDbSpline
210
0.0
220
0.0
230
1.0
 70
     8
 71
     3
 72
    11
 73
     7
 74
     0
 42
0.000000001
 43
0.00000001
 40
0.0
 40
0.0
 40
0.0
 40
0.0
 40
0.2719204694588196
 40
0.526107907582366
 40
0.7692150230045561
 40
1.0
 40
1.0
 40
1.0
 40
1.0
 10
-29.55478446460569
 20
-24.61284951303491
 30
0.0
 10
-29.76633616050134
 20
-24.60857649598455
 30
0.0
 10
-30.17564341234111
 20
-24.60030912257237
 30
0.0
 10
-30.76817265797056
 20
-24.51237556274204
 30
0.0
 10
-31.32084207748004
 20
-24.38262536563716
 30
0.0
 10
-31.66256529376454
 20
-24.24368180796208
 30
0.0
 10
-31.82898415972765
 20
-24.17601643376662
 30
0.0
  0
SPLINE
  5
8E
330
1F
100
AcDbEntity
  8
0
  6
Continuous
 62
     7
370
    25
100
AcDbSpline
210
0.0
220
0.0
230
1.0
 70
     8
 71
     3
 72
    23
 73
    19
 74
     0
 42
0.000000001
 43
0.00000001
 40
0.0
 40
0.0
 40
0.0
 40
0.0
 40
0.0746756440959118
 40
0.1464008179439786
 40
0.2156471037987521
 40
0.2822973025714742
 40
0.3470690188729437
 40
0.4097653845830181
 40
0.4713444982367136
 40
0.5319779138676171
 40
0.5914605725896064
 40
0.6496595458800207
 40
0.707181928152504
 40
0.7644806268638341
 40
0.8219319315616578
 40
0.8798211660396884
 40
0.9391308601714632
 40
1.0
 40
1.0
 40
1.0
 40
1.0
 10
-21.01486449509349
 20
-17.47679768376662
 30
0.0
 10
-21.11529726127081
 20
-17.75690924678458
 30
0.0
 10
-21.31219464722239
 20
-18.30606503161752
 30
0.0
 10
-21.65215601255003
 20
-19.09600539404355
 30
0.0
 10
-22.03094421180124
 20
-19.83187767147532
 30
0.0
 10
-22.43254478425968
 20
-20.52387154672072
 30
0.0
 10
-22.87332739983654
 20
-21.16040617874097
 30
0.0
 10
-23.34588786494336
 20
-21.74770594987302
 30
0.0
 10
-23.84946781542807
 20
-22.28656805659984
 30
0.0
 10
-24.38668097785346
 20
-22.77295109016408
 30
0.0
 10
-24.94925898141594
 20
-23.20823491347997
 30
0.0
 10
-25.53926827850789
 20
-23.58314981133915
 30
0.0
 10
-26.15174008372931
 20
-23.90131403935403
 30
0.0
 10
-26.78721989289821
 20
-24.16340225890491
 30
0.0
 10
-27.44662644861265
 20
-24.36271681948736
 30
0.0
 10
-28.12812482513213
 20
-24.50661280811022
 30
0.0
 10
-28.83328138466103
 20
-24.5953834996891
 30
0.0
 10
-29.31221189701049
 20
-24.60697736110554
 30
0.0
 10
-29.55478446460569
 20
-24.61284951303491
 30
0.0
  0
SPLINE
  5
9A
330
1F
100
AcDbEntity
  8
0
  6
Continuous
 62
     7
370
    25
100
AcDbSpline
210
0.0
220
0.0
230
1.0
 70
     8
 71
     3
 72
    23
 73
    19
 74
     0
 42
0.000000001
 43
0.00000001
 40
0.0
 40
0.0
 40
0.0
 40
0.0
 40
0.0606782243726761
 40
0.1193357352715521
 40
0.1763168538564147
 40
0.2327691002277466
 40
0.2884365791836919
 40
0.3444159232070041
 40
0.4007826721574502
 40
0.4584287708377784
 40
0.5171023226232325
 40
0.5775630337773361
 40
0.6409101745377321
 40
0.7064262125849915
 40
0.7744094291786586
 40
0.8462114258456294
 40
0.9214298453537926
 40
1.0
 40
1.0
 40
1.0
 40
1.0
 10
16.94292895002847
 20
-21.41163000083979
 30
0.0
 10
17.08204867343249
 20
-21.40864964333866
 30
0.0
 10
17.35565513859908
 20
-21.40278818055778
 30
0.0
 10
17.75685475921991
 20
-21.34994167517887
 30
0.0
 10
18.14402850554109
 20
-21.27232721494288
 30
0.0
 10
18.51365152334258
 20
-21.15363601174545
 30
0.0
 10
18.8702053299171
 20
-21.00673490748527
 30
0.0
 10
19.2111506677802
 20
-20.82641176004997
 30
0.0
 10
19.5363672205673
 20
-20.61091875510608
 30
0.0
 10
19.84605159133116
 20
-20.36381492393087
 30
0.0
 10
20.14136119665777
 20
-20.08575886496497
 30
0.0
 10
20.41947500576809
 20
-19.7727677913622
 30
0.0
 10
20.68134797947444
 20
-19.42637386053214
 30
0.0
 10
20.9283568388999
 20
-19.04850859567819
 30
0.0
 10
21.1594775518736
 20
-18.63836122500048
 30
0.0
 10
21.37564120647984
 20
-18.19529586477049
 30
0.0
 10
21.57505422352896
 20
-17.71800064921593
 30
0.0
 10
21.69399534253103
 20
-17.3862096809425
 30
0.0
 10
21.75476202929676
 20
-17.21669859840076
 30
0.0
  0
SPLINE
  5
9B
330
1F
100
AcDbEntity
  8
0
  6
Continuous
 62
     7
370
    25
100
AcDbSpline
210
0.0
220
0.0
230
1.0
 70
     8
 71
     3
 72
    23
 73
    19
 74
     0
 42
0.000000001
 43
0.00000001
 40
0.0
 40
0.0
 40
0.0
 40
0.0
 40
0.092721061987411
 40
0.1782122484450628
 40
0.2567810189906518
 40
0.3283308312765668
 40
0.3943892067024835
 40
0.4544223045209447
 40
0.5098349480567869
 40
0.5609821291405239
 40
0.6100553279575518
 40
0.6577668682282725
 40
0.7061947402834748
 40
0.7563780760534347
 40
0.8100925461564554
 40
0.8679022553306112
 40
0.9311252328746964
 40
1.0
 40
1.0
 40
1.0
 40
1.0
 10
14.97884739515042
 20
-17.05663762279101
 30
0.0
 10
14.92125417205407
 20
-17.23164805836245
 30
0.0
 10
14.81055852682312
 20
-17.56802258380491
 30
0.0
 10
14.68326075077776
 20
-18.06246830138114
 30
0.0
 10
14.59593415829163
 20
-18.5226451586593
 30
0.0
 10
14.54404027901933
 20
-18.94932276097053
 30
0.0
 10
14.52826673376162
 20
-19.34225725713093
 30
0.0
 10
14.55342667014867
 20
-19.70281183723492
 30
0.0
 10
14.61896998988411
 20
-20.02836565932975
 30
0.0
 10
14.72376526627554
 20
-20.32028201679289
 30
0.0
 10
14.86262060622531
 20
-20.58099254455316
 30
0.0
 10
15.04702085776201
 20
-20.80531867648205
 30
0.0
 10
15.27051123366317
 20
-20.99335993514021
 30
0.0
 10
15.53175225727556
 20
-21.14874440340604
 30
0.0
 10
15.83150385044628
 20
-21.26733374096391
 30
0.0
 10
16.16842284641413
 20
-21.35433546363408
 30
0.0
 10
16.543589673306
 20
-21.40278784509926
 30
0.0
 10
16.80607242451346
 20
-21.40859972862955
 30
0.0
 10
16.94292895002847
 20
-21.41163000083979
 30
0.0
  0
SPLINE
  5
9F
330
1F
100
AcDbEntity
  8
0
  6
Continuous
 62
     7
370
    25
100
AcDbSpline
210
0.0
220
0.0
230
1.0
 70
     8
 71
     3
 72
    23
 73
    19
 74
     0
 42
0.000000001
 43
0.00000001
 40
0.0
 40
0.0
 40
0.0
 40
0.0
 40
0.0758252133646665
 40
0.1454615879389391
 40
0.2090975468150867
 40
0.2674833122733102
 40
0.3220828782597848
 40
0.3732243223418512
 40
0.4225559479972307
 40
0.4719489388243325
 40
0.5222525263386804
 40
0.5752486396555841
 40
0.6317654168195244
 40
0.6934210585107664
 40
0.7603723415491789
 40
0.833586329556992
 40
0.9134469134804288
 40
1.0
 40
1.0
 40
1.0
 40
1.0
 10
15.59574907197968
 20
-24.61284951303491
 30
0.0
 10
15.31535778801104
 20
-24.60770559582269
 30
0.0
 10
14.77746070074319
 20
-24.59783760689507
 30
0.0
 10
14.00876290823136
 20
-24.50652355430723
 30
0.0
 10
13.31348097642482
 20
-24.36436083688709
 30
0.0
 10
12.69282513337665
 20
-24.15679322730391
 30
0.0
 10
12.14392679785997
 20
-23.89314851343802
 30
0.0
 10
11.67337228999099
 20
-23.56139739230676
 30
0.0
 10
11.27451405315237
 20
-23.17314269660559
 30
0.0
 10
10.95505102909865
 20
-22.72052772557594
 30
0.0
 10
10.71291021633087
 20
-22.20790554496151
 30
0.0
 10
10.54678033524695
 20
-21.63868103296257
 30
0.0
 10
10.45823170498067
 20
-21.01010966328899
 30
0.0
 10
10.45086799976194
 20
-20.32460554678513
 30
0.0
 10
10.50689090134933
 20
-19.57960608981887
 30
0.0
 10
10.65049604987279
 20
-18.77807377272675
 30
0.0
 10
10.85964442658827
 20
-17.91665285336479
 30
0.0
 10
11.04893581836713
 20
-17.33115060933993
 30
0.0
 10
11.14738779149188
 20
-17.02662618986418
 30
0.0
  0
SPLINE
  5
A0
330
1F
100
AcDbEntity
  8
0
  6
Continuous
 62
     7
370
    25
100
AcDbSpline
210
0.0
220
0.0
230
1.0
 70
     8
 71
     3
 72
    23
 73
    19
 74
     0
 42
0.000000001
 43
0.00000001
 40
0.0
 40
0.0
 40
0.0
 40
0.0
 40
0.0739571646111244
 40
0.1445108918296938
 40
0.2125599131286172
 40
0.2777317746064759
 40
0.3406784538777508
 40
0.401568790040969
 40
0.4609997789111155
 40
0.5193857267897177
 40
0.5769766230587866
 40
0.6342948153232124
 40
0.6920522498651651
 40
0.7504967743371737
 40
0.8101717056707833
 40
0.8712038444067293
 40
0.9345445904476497
 40
1.0
 40
1.0
 40
1.0
 40
1.0
 10
25.51619495612603
 20
-16.82321536669345
 30
0.0
 10
25.40307740421773
 20
-17.13916575580107
 30
0.0
 10
25.18204786105157
 20
-17.75652680180598
 30
0.0
 10
24.79639349480825
 20
-18.64124533080008
 30
0.0
 10
24.37409866759544
 20
-19.46427997012272
 30
0.0
 10
23.91650142128604
 20
-20.22831579705874
 30
0.0
 10
23.42392663195109
 20
-20.93139004122493
 30
0.0
 10
22.88993866396899
 20
-21.56962278406655
 30
0.0
 10
22.32769712610588
 20
-22.15515421492417
 30
0.0
 10
21.72063880059131
 20
-22.67135992945746
 30
0.0
 10
21.08271696538338
 20
-23.13265649210392
 30
0.0
 10
20.40397637766592
 20
-23.52587415359329
 30
0.0
 10
19.69276704542487
 20
-23.86567320326368
 30
0.0
 10
18.9416283224266
 20
-24.13799284099179
 30
0.0
 10
18.15672873176108
 20
-24.35287122498779
 30
0.0
 10
17.33406010171421
 20
-24.49981249664844
 30
0.0
 10
16.47732728096236
 20
-24.59749268131674
 30
0.0
 10
15.89280749041832
 20
-24.60767484322576
 30
0.0
 10
15.59574907197968
 20
-24.61284951303491
 30
0.0
  0
CIRCLE
  5
A2
330
1F
100
AcDbEntity
  8
0
  6
Continuous
 62
     7
370
    25
100
AcDbCircle
 10
100.0032372713
 20
30.9661016216
 30
0.0
 40
3.000000000000156
  0
CIRCLE
  5
A3
330
1F
100
AcDbEntity
  8
0
  6
Continuous
 62
     7
370
    25
100
AcDbCircle
 10
70.8348775829
 20
-0.0150559883
 30
0.0
 40
3.000000000000099
  0
CIRCLE
  5
A4
330
1F
100
AcDbEntity
  8
0
  6
Continuous
 62
     7
370
    25
100
AcDbCircle
 10
85.5811802658
 20
-7.2641838754
 30
0.0
 40
8.499999999999986
  0
LINE
  5
A5
330
1F
100
AcDbEntity
  8
0
  6
Continuous
 62
     7
370
    25
100
AcDbLine
 10
134.6674298013
 20
68.6089377467
 30
0.0
 11
-59.3325701987
 21
68.6089377467
 31
0.0
  0
LINE
  5
A6
330
1F
100
AcDbEntity
  8
0
  6
Continuous
 62
     7
370
    25
100
AcDbLine
 10
134.6674298013
 20
-31.3910622533
 30
0.0
 11
134.6674298013
 21
68.6089377467
 31
0.0
  0
LINE
  5
A7
330
1F
100
AcDbEntity
  8
0
  6
Continuous
 62
     7
370
    25
100
AcDbLine
 10
-59.3325701987
 20
-31.3910622533
 30
0.0
 11
134.6674298013
 21
-31.3910622533
 31
0.0
  0
LINE
  5
A8
330
1F
100
AcDbEntity
  8
0
  6
Continuous
 62
     7
370
    25
100
AcDbLine
 10
-59.3325701987
 20
68.6089377467
 30
0.0
 11
-59.3325701987
 21
-31.3910622533
 31
0.0
  0
LINE
  5
A9
330
1F
100
AcDbEntity
  8
0
  6
Continuous
 62
     7
370
    25
100
AcDbLine
 10
-35.2936373609
 20
-7.3696139947
 30
0.0
 11
-36.5141023
 21
-10.9543129277
 31
0.0
  0
LINE
  5
AA
330
1F
100
AcDbEntity
  8
0
  6
Continuous
 62
     7
370
    25
100
AcDbLine
 10
-51.7098911719
 20
-23.6458144521
 30
0.0
 11
-50.4427417817
 21
-19.9177275618
 31
0.0
  0
LINE
  5
AB
330
1F
100
AcDbEntity
  8
0
  6
Continuous
 62
     7
370
    25
100
AcDbLine
 10
-21.0482105317
 20
-6.8994348789
 30
0.0
 11
-17.4201617512
 21
-6.8994348789
 31
0.0
  0
LINE
  5
AC
330
1F
100
AcDbEntity
  8
0
  6
Continuous
 62
     7
370
    25
100
AcDbLine
 10
-24.6028980317
 20
-17.3500827447
 30
0.0
 11
-21.0482105317
 21
-6.8994348789
 31
0.0
  0
LINE
  5
AD
330
1F
100
AcDbEntity
  8
0
  6
Continuous
 62
     7
370
    25
100
AcDbLine
 10
-31.8289841597
 20
-24.1760164338
 30
0.0
 11
-30.6718766902
 21
-20.7713860984
 31
0.0
  0
LINE
  5
AE
330
1F
100
AcDbEntity
  8
0
  6
Continuous
 62
     7
370
    25
100
AcDbLine
 10
-17.4201617512
 20
-6.8994348789
 30
0.0
 11
-21.0148644951
 21
-17.4767976838
 31
0.0
  0
LINE
  5
AF
330
1F
100
AcDbEntity
  8
0
  6
Continuous
 62
     7
370
    25
100
AcDbLine
 10
-8.2433324829
 20
-6.8994348789
 30
0.0
 11
5.4152041025
 21
-6.8994348789
 31
0.0
  0
LINE
  5
B0
330
1F
100
AcDbEntity
  8
0
  6
Continuous
 62
     7
370
    25
100
AcDbLine
 10
-9.2603865988
 20
-9.8872397569
 30
0.0
 11
-8.2433324829
 21
-6.8994348789
 31
0.0
  0
LINE
  5
B1
330
1F
100
AcDbEntity
  8
0
  6
Continuous
 62
     7
370
    25
100
AcDbLine
 10
-4.3518500134
 20
-9.8872397569
 30
0.0
 11
-9.2603865988
 21
-9.8872397569
 31
0.0
  0
LINE
  5
B2
330
1F
100
AcDbEntity
  8
0
  6
Continuous
 62
     7
370
    25
100
AcDbLine
 10
-9.2837288244
 20
-24.3994348789
 30
0.0
 11
-4.3518500134
 21
-9.8872397569
 31
0.0
  0
LINE
  5
B3
330
1F
100
AcDbEntity
  8
0
  6
Continuous
 62
     7
370
    25
100
AcDbLine
 10
-5.4422654097
 20
-24.3994348789
 30
0.0
 11
-9.2837288244
 21
-24.3994348789
 31
0.0
  0
LINE
  5
B4
330
1F
100
AcDbEntity
  8
0
  6
Continuous
 62
     7
370
    25
100
AcDbLine
 10
-0.5103865988
 20
-9.8872397569
 30
0.0
 11
-5.4422654097
 21
-24.3994348789
 31
0.0
  0
LINE
  5
B5
330
1F
100
AcDbEntity
  8
0
  6
Continuous
 62
     7
370
    25
100
AcDbLine
 10
4.3981499866
 20
-9.8872397569
 30
0.0
 11
-0.5103865988
 21
-9.8872397569
 31
0.0
  0
LINE
  5
B6
330
1F
100
AcDbEntity
  8
0
  6
Continuous
 62
     7
370
    25
100
AcDbLine
 10
5.4152041025
 20
-6.8994348789
 30
0.0
 11
4.3981499866
 21
-9.8872397569
 31
0.0
  0
LINE
  5
B7
330
1F
100
AcDbEntity
  8
0
  6
Continuous
 62
     7
370
    25
100
AcDbLine
 10
25.2627650781
 20
-6.8994348789
 30
0.0
 11
28.8908138586
 21
-6.8994348789
 31
0.0
  0
LINE
  5
B8
330
1F
100
AcDbEntity
  8
0
  6
Continuous
 62
     7
370
    25
100
AcDbLine
 10
21.7547620293
 20
-17.2166985984
 30
0.0
 11
25.2627650781
 21
-6.8994348789
 31
0.0
  0
LINE
  5
B9
330
1F
100
AcDbEntity
  8
0
  6
Continuous
 62
     7
370
    25
100
AcDbLine
 10
18.4334967854
 20
-6.8994348789
 30
0.0
 11
14.9788473952
 21
-17.0566376228
 31
0.0
  0
LINE
  5
BA
330
1F
100
AcDbEntity
  8
0
  6
Continuous
 62
     7
370
    25
100
AcDbLine
 10
14.5920333708
 20
-6.8994348789
 30
0.0
 11
18.4334967854
 21
-6.8994348789
 31
0.0
  0
LINE
  5
BB
330
1F
100
AcDbEntity
  8
0
  6
Continuous
 62
     7
370
    25
100
AcDbLine
 10
11.1473877915
 20
-17.0266261899
 30
0.0
 11
14.5920333708
 21
-6.8994348789
 31
0.0
  0
LINE
  5
BC
330
1F
100
AcDbEntity
  8
0
  6
Continuous
 62
     7
370
    25
100
AcDbLine
 10
28.8908138586
 20
-6.8994348789
 30
0.0
 11
25.5161949561
 21
-16.8232153667
 31
0.0
  0
MTEXT
  5
BE
330
1F
100
AcDbEntity
  8
0
  6
Continuous
 62
     7
100
AcDbMText
 10
-59.3325701987
 20
-39.661058645
 30
0.0
 40
4.83362
 41
0.0
 71
     1
 72
     1
  1
SOLIDWORKS \U+6559\U+80B2\U+7248²ú\U+54C1\U+3002½ö\U+4F9B\U+6559\U+5B66\U+4F7F\U+7528\U+3002
  7
SLDTEXTSTYLE0
 73
     1
 44
1.0
  0
ENDSEC
  0
SECTION
  2
OBJECTS
  0
DICTIONARY
  5
C
330
0
100
AcDbDictionary
281
     1
  3
ACAD_GROUP
350
D
  3
ACAD_LAYOUT
350
1A
  3
ACAD_MLINESTYLE
350
17
  3
ACAD_PLOTSETTINGS
350
19
  3
ACAD_PLOTSTYLENAME
350
E
  3
ACAD_SCALELIST
350
47
  0
DICTIONARY
  5
D
102
{ACAD_REACTORS
330
C
102
}
330
C
100
AcDbDictionary
281
     1
  0
DICTIONARY
  5
1A
102
{ACAD_REACTORS
330
C
102
}
330
C
100
AcDbDictionary
281
     1
  3
Layout1
350
1E
  3
Layout2
350
26
  3
Model
350
22
  0
DICTIONARY
  5
17
102
{ACAD_REACTORS
330
C
102
}
330
C
100
AcDbDictionary
281
     1
  3
Standard
350
18
  0
DICTIONARY
  5
19
102
{ACAD_REACTORS
330
C
102
}
330
C
100
AcDbDictionary
281
     1
  0
ACDBDICTIONARYWDFLT
  5
E
102
{ACAD_REACTORS
330
C
102
}
330
C
100
AcDbDictionary
281
     1
  3
Normal
350
F
100
AcDbDictionaryWithDefault
340
F
  0
DICTIONARY
  5
47
102
{ACAD_REACTORS
330
C
102
}
330
C
100
AcDbDictionary
281
     1
  3
A0
350
48
  3
A1
350
49
  3
A2
350
4A
  3
A3
350
4B
  3
A4
350
4C
  3
A5
350
4D
  3
A6
350
4E
  3
A7
350
4F
  3
A8
350
50
  3
A9
350
51
  3
B0
350
52
  3
B1
350
53
  3
B2
350
54
  3
B3
350
55
  3
B4
350
56
  3
B5
350
57
  3
B6
350
58
  3
B7
350
59
  3
B8
350
5A
  3
B9
350
5B
  3
C0
350
5C
  3
C1
350
5D
  3
C2
350
5E
  3
C3
350
5F
  3
C4
350
60
  3
C5
350
61
  3
C6
350
62
  3
C7
350
63
  3
C8
350
64
  3
C9
350
65
  3
D0
350
66
  3
D1
350
67
  3
D2
350
68
  0
LAYOUT
  5
1E
102
{ACAD_REACTORS
330
1A
102
}
330
1A
100
AcDbPlotSettings
  1

  2
none_device
  4

  6

 40
0.0
 41
0.0
 42
0.0
 43
0.0
 44
0.0
 45
0.0
 46
0.0
 47
0.0
 48
0.0
 49
0.0
140
0.0
141
0.0
142
1.0
143
1.0
 70
   688
 72
     1
 73
     0
 74
     5
  7

 75
    16
147
1.0
148
0.0
149
0.0
100
AcDbLayout
  1
Layout1
 70
     1
 71
     1
 10
0.0
 20
0.0
 11
420.0
 21
297.0
 12
0.0
 22
0.0
 32
0.0
 14
1.0000000000E+20
 24
1.0000000000E+20
 34
1.0000000000E+20
 15
-1.0000000000E+20
 25
-1.0000000000E+20
 35
-1.0000000000E+20
146
0.0
 13
0.0
 23
0.0
 33
0.0
 16
1.0
 26
0.0
 36
0.0
 17
0.0
 27
1.0
 37
0.0
 76
     0
330
1B
  0
LAYOUT
  5
26
102
{ACAD_REACTORS
330
1A
102
}
330
1A
100
AcDbPlotSettings
  1

  2
none_device
  4

  6

 40
0.0
 41
0.0
 42
0.0
 43
0.0
 44
0.0
 45
0.0
 46
0.0
 47
0.0
 48
0.0
 49
0.0
140
0.0
141
0.0
142
1.0
143
1.0
 70
   688
 72
     1
 73
     0
 74
     5
  7

 75
    16
147
1.0
148
0.0
149
0.0
100
AcDbLayout
  1
Layout2
 70
     1
 71
     2
 10
0.0
 20
0.0
 11
0.0
 21
0.0
 12
0.0
 22
0.0
 32
0.0
 14
0.0
 24
0.0
 34
0.0
 15
0.0
 25
0.0
 35
0.0
146
0.0
 13
0.0
 23
0.0
 33
0.0
 16
1.0
 26
0.0
 36
0.0
 17
0.0
 27
1.0
 37
0.0
 76
     0
330
23
  0
LAYOUT
  5
22
102
{ACAD_REACTORS
330
1A
102
}
330
1A
100
AcDbPlotSettings
  1

  2
none_device
  4
ANSI_A_(11.00_x_8.50_Inches)
  6

 40
6.35
 41
19.05
 42
6.35000508
 43
19.05000254
 44
279.4
 45
215.9
 46
79.6436207197
 47
62.3672985529
 48
0.0
 49
0.0
140
0.0
141
0.0
142
0.0561340206
143
1.0
 70
  1696
 72
     0
 73
     0
 74
     0
  7

 75
     0
147
0.0179189148
148
-1300.4909072572
149
0.0
100
AcDbLayout
  1
Model
 70
     1
 71
     0
 10
0.0
 20
0.0
 11
420.0
 21
297.0
 12
0.0
 22
0.0
 32
0.0
 14
-59.3325701987
 24
-31.3910622533
 34
0.0
 15
134.6674298013
 25
68.6089377467
 35
0.0
146
0.0
 13
0.0
 23
0.0
 33
0.0
 16
1.0
 26
0.0
 36
0.0
 17
0.0
 27
1.0
 37
0.0
 76
     0
330
1F
331
29
  0
MLINESTYLE
  5
18
102
{ACAD_REACTORS
330
17
102
}
330
17
100
AcDbMlineStyle
  2
Standard
 70
     0
  3

 62
   256
 51
90.0
 52
90.0
 71
     2
 49
0.5
 62
   256
  6
BYLAYER
 49
-0.5
 62
   256
  6
BYLAYER
  0
ACDBPLACEHOLDER
  5
F
102
{ACAD_REACTORS
330
E
102
}
330
E
  0
SCALE
  5
48
102
{ACAD_REACTORS
330
47
102
}
330
47
100
AcDbScale
 70
     0
300
1:1
140
1.0
141
1.0
290
     1
  0
SCALE
  5
49
102
{ACAD_REACTORS
330
47
102
}
330
47
100
AcDbScale
 70
     0
300
1:2
140
1.0
141
2.0
290
     0
  0
SCALE
  5
4A
102
{ACAD_REACTORS
330
47
102
}
330
47
100
AcDbScale
 70
     0
300
1:4
140
1.0
141
4.0
290
     0
  0
SCALE
  5
4B
102
{ACAD_REACTORS
330
47
102
}
330
47
100
AcDbScale
 70
     0
300
1:5
140
1.0
141
5.0
290
     0
  0
SCALE
  5
4C
102
{ACAD_REACTORS
330
47
102
}
330
47
100
AcDbScale
 70
     0
300
1:8
140
1.0
141
8.0
290
     0
  0
SCALE
  5
4D
102
{ACAD_REACTORS
330
47
102
}
330
47
100
AcDbScale
 70
     0
300
1:10
140
1.0
141
10.0
290
     0
  0
SCALE
  5
4E
102
{ACAD_REACTORS
330
47
102
}
330
47
100
AcDbScale
 70
     0
300
1:16
140
1.0
141
16.0
290
     0
  0
SCALE
  5
4F
102
{ACAD_REACTORS
330
47
102
}
330
47
100
AcDbScale
 70
     0
300
1:20
140
1.0
141
20.0
290
     0
  0
SCALE
  5
50
102
{ACAD_REACTORS
330
47
102
}
330
47
100
AcDbScale
 70
     0
300
1:30
140
1.0
141
30.0
290
     0
  0
SCALE
  5
51
102
{ACAD_REACTORS
330
47
102
}
330
47
100
AcDbScale
 70
     0
300
1:40
140
1.0
141
40.0
290
     0
  0
SCALE
  5
52
102
{ACAD_REACTORS
330
47
102
}
330
47
100
AcDbScale
 70
     0
300
1:50
140
1.0
141
50.0
290
     0
  0
SCALE
  5
53
102
{ACAD_REACTORS
330
47
102
}
330
47
100
AcDbScale
 70
     0
300
1:100
140
1.0
141
100.0
290
     0
  0
SCALE
  5
54
102
{ACAD_REACTORS
330
47
102
}
330
47
100
AcDbScale
 70
     0
300
2:1
140
2.0
141
1.0
290
     0
  0
SCALE
  5
55
102
{ACAD_REACTORS
330
47
102
}
330
47
100
AcDbScale
 70
     0
300
4:1
140
4.0
141
1.0
290
     0
  0
SCALE
  5
56
102
{ACAD_REACTORS
330
47
102
}
330
47
100
AcDbScale
 70
     0
300
8:1
140
8.0
141
1.0
290
     0
  0
SCALE
  5
57
102
{ACAD_REACTORS
330
47
102
}
330
47
100
AcDbScale
 70
     0
300
10:1
140
10.0
141
1.0
290
     0
  0
SCALE
  5
58
102
{ACAD_REACTORS
330
47
102
}
330
47
100
AcDbScale
 70
     0
300
100:1
140
100.0
141
1.0
290
     0
  0
SCALE
  5
59
102
{ACAD_REACTORS
330
47
102
}
330
47
100
AcDbScale
 70
     0
300
1/128" = 1'-0"
140
0.0078125
141
12.0
290
     0
  0
SCALE
  5
5A
102
{ACAD_REACTORS
330
47
102
}
330
47
100
AcDbScale
 70
     0
300
1/64" = 1'-0"
140
0.015625
141
12.0
290
     0
  0
SCALE
  5
5B
102
{ACAD_REACTORS
330
47
102
}
330
47
100
AcDbScale
 70
     0
300
1/32" = 1'-0"
140
0.03125
141
12.0
290
     0
  0
SCALE
  5
5C
102
{ACAD_REACTORS
330
47
102
}
330
47
100
AcDbScale
 70
     0
300
1/16" = 1'-0"
140
0.0625
141
12.0
290
     0
  0
SCALE
  5
5D
102
{ACAD_REACTORS
330
47
102
}
330
47
100
AcDbScale
 70
     0
300
3/32" = 1'-0"
140
0.09375
141
12.0
290
     0
  0
SCALE
  5
5E
102
{ACAD_REACTORS
330
47
102
}
330
47
100
AcDbScale
 70
     0
300
1/8" = 1'-0"
140
0.125
141
12.0
290
     0
  0
SCALE
  5
5F
102
{ACAD_REACTORS
330
47
102
}
330
47
100
AcDbScale
 70
     0
300
3/16" = 1'-0"
140
0.1875
141
12.0
290
     0
  0
SCALE
  5
60
102
{ACAD_REACTORS
330
47
102
}
330
47
100
AcDbScale
 70
     0
300
1/4" = 1'-0"
140
0.25
141
12.0
290
     0
  0
SCALE
  5
61
102
{ACAD_REACTORS
330
47
102
}
330
47
100
AcDbScale
 70
     0
300
3/8" = 1'-0"
140
0.375
141
12.0
290
     0
  0
SCALE
  5
62
102
{ACAD_REACTORS
330
47
102
}
330
47
100
AcDbScale
 70
     0
300
1/2" = 1'-0"
140
0.5
141
12.0
290
     0
  0
SCALE
  5
63
102
{ACAD_REACTORS
330
47
102
}
330
47
100
AcDbScale
 70
     0
300
3/4" = 1'-0"
140
0.75
141
12.0
290
     0
  0
SCALE
  5
64
102
{ACAD_REACTORS
330
47
102
}
330
47
100
AcDbScale
 70
     0
300
1" = 1'-0"
140
1.0
141
12.0
290
     0
  0
SCALE
  5
65
102
{ACAD_REACTORS
330
47
102
}
330
47
100
AcDbScale
 70
     0
300
1-1/2" = 1'-0"
140
1.5
141
12.0
290
     0
  0
SCALE
  5
66
102
{ACAD_REACTORS
330
47
102
}
330
47
100
AcDbScale
 70
     0
300
3" = 1'-0"
140
3.0
141
12.0
290
     0
  0
SCALE
  5
67
102
{ACAD_REACTORS
330
47
102
}
330
47
100
AcDbScale
 70
     0
300
6" = 1'-0"
140
6.0
141
12.0
290
     0
  0
SCALE
  5
68
102
{ACAD_REACTORS
330
47
102
}
330
47
100
AcDbScale
 70
     0
300
1'-0" = 1'-0"
140
12.0
141
12.0
290
     0
  0
ENDSEC
  0
EOF
